{"glyphs":{"0":{"ha":688,"x_min":71,"x_max":617,"o":"m 617 515 q 581 178 617 282 q 335 -4 519 -4 q 97 179 151 -4 q 71 513 71 268 q 108 829 71 726 q 344 1000 169 1000 q 579 831 518 1000 q 617 515 617 728 m 443 360 q 442 449 443 390 q 440 539 440 508 q 442 615 440 564 q 443 690 443 665 q 344 924 443 924 q 246 690 246 924 q 247 615 246 665 q 249 539 249 564 q 247 453 249 510 q 246 368 246 397 q 289 90 246 138 q 346 69 310 69 q 397 86 378 69 q 443 360 443 128 z "},"1":{"ha":688,"x_min":88,"x_max":615,"o":"m 615 8 q 594 -3 615 -3 l 108 -3 q 88 8 88 -3 l 88 61 q 100 82 88 82 l 222 83 q 253 100 238 83 q 269 144 269 117 l 275 688 q 256 734 275 715 q 210 754 238 753 l 97 754 q 89 771 89 754 l 89 789 q 99 808 89 807 q 285 979 228 835 q 300 997 289 993 q 363 1000 311 1000 q 425 997 415 1000 q 435 983 435 993 l 433 144 q 449 100 433 117 q 481 83 465 83 l 601 82 q 615 61 615 82 l 615 8 z "},"2":{"ha":688,"x_min":81,"x_max":601,"o":"m 601 736 q 511 467 601 553 q 325 365 458 417 q 239 329 247 335 q 188 260 188 301 q 368 188 188 188 q 518 288 510 188 q 532 310 521 310 l 572 310 q 592 285 590 310 q 594 174 594 247 q 439 -14 594 -14 q 317 33 381 -14 q 215 79 254 79 q 153 57 164 79 q 149 15 151 54 q 118 -7 146 -7 q 88 0 90 -7 q 81 117 81 8 q 176 379 81 329 q 360 515 301 444 q 432 729 432 603 q 400 849 432 800 q 296 904 364 904 q 225 882 257 904 q 193 824 193 860 q 216 782 193 815 q 239 704 239 749 q 222 643 239 671 q 171 610 201 610 q 86 736 86 610 q 346 990 86 990 q 531 921 461 990 q 601 736 601 851 z "},"3":{"ha":688,"x_min":71,"x_max":604,"o":"m 604 263 q 564 116 604 182 q 451 17 524 50 q 350 -7 400 -7 q 156 43 228 -7 q 71 218 71 101 q 97 301 71 265 q 168 336 122 336 q 231 307 208 336 q 253 238 253 278 q 241 192 253 222 q 229 147 229 163 q 258 90 229 115 q 318 64 286 64 q 413 136 383 64 q 436 263 436 189 q 346 471 436 432 q 189 486 310 486 q 172 525 172 486 q 185 558 172 556 q 232 561 199 561 q 378 608 321 561 q 436 743 436 656 q 418 864 436 817 q 326 942 389 942 q 260 912 286 942 q 235 840 235 882 q 240 809 235 831 q 244 776 244 788 q 217 722 244 742 q 153 703 190 703 q 90 739 114 703 q 71 811 71 771 q 96 897 71 857 q 350 1006 163 1006 q 530 937 460 1006 q 600 758 600 868 q 568 636 600 686 q 511 569 554 613 q 481 514 481 538 q 513 468 481 497 q 558 425 536 446 q 604 263 604 371 z "},"4":{"ha":688,"x_min":75,"x_max":613,"o":"m 613 8 q 592 -3 613 -3 l 185 -3 q 165 8 165 -3 l 165 61 q 181 82 165 82 l 306 83 q 353 175 353 83 q 350 222 353 201 q 301 256 343 256 l 176 256 q 87 260 99 256 q 75 286 75 265 l 75 383 q 86 431 75 403 q 324 988 163 644 q 336 999 329 999 q 371 999 339 999 q 428 1000 410 1000 q 503 997 494 1000 q 511 985 511 994 l 511 419 q 531 393 511 393 l 581 393 q 594 372 594 393 l 594 263 q 574 251 594 251 l 526 251 q 511 231 511 251 l 510 144 q 599 82 510 75 q 613 61 613 82 l 613 8 m 346 415 l 346 858 q 338 878 346 878 q 324 867 331 879 q 140 433 244 714 q 133 401 132 411 q 153 393 133 393 l 332 394 q 346 415 346 394 z "},"5":{"ha":688,"x_min":79,"x_max":608,"o":"m 608 306 q 524 86 608 174 q 307 -1 439 -1 q 135 61 196 -1 q 79 232 79 117 q 168 342 79 342 q 222 319 200 342 q 243 265 243 297 q 217 185 243 221 q 192 140 192 149 q 218 88 192 107 q 279 69 244 69 q 397 135 354 69 q 436 269 436 192 l 436 386 q 286 582 436 582 q 165 533 215 582 q 148 514 157 524 q 128 504 139 504 q 100 532 106 504 q 97 594 97 549 q 106 861 97 683 q 113 971 107 907 q 146 1000 118 1000 q 308 997 200 1000 q 469 993 415 993 q 525 997 500 993 q 561 1001 560 1001 q 594 964 594 1001 q 526 832 594 867 q 369 808 478 808 q 272 810 235 808 q 182 792 201 807 q 169 708 169 781 l 169 693 q 285 629 169 629 q 464 607 417 629 q 608 306 608 539 z "},"6":{"ha":688,"x_min":83,"x_max":613,"o":"m 613 318 q 453 22 613 97 q 332 -4 396 -4 q 119 154 178 -4 q 83 443 83 254 q 119 797 83 683 q 367 1001 182 1001 q 604 808 604 1001 q 533 697 604 697 q 453 767 453 697 q 458 805 453 781 q 464 843 464 829 q 444 901 464 878 q 389 925 424 925 q 283 822 319 925 q 265 708 265 775 q 271 625 265 644 q 333 583 285 583 q 376 588 347 583 q 419 592 406 592 q 571 500 519 592 q 613 318 613 425 m 451 351 q 435 468 451 432 q 342 521 410 521 q 249 364 249 521 q 260 178 249 240 q 344 72 279 72 q 443 183 426 72 q 451 351 451 242 z "},"7":{"ha":688,"x_min":82,"x_max":618,"o":"m 618 982 q 601 785 618 889 q 547 599 582 657 q 433 389 446 429 q 413 149 413 329 q 294 -3 413 -3 q 214 47 246 -3 q 186 142 186 90 q 268 364 186 243 q 421 554 276 376 q 503 711 503 656 q 433 782 503 782 l 213 782 q 161 753 171 782 q 157 688 157 739 q 156 592 157 658 q 139 578 156 578 l 93 578 q 82 600 82 578 l 82 969 q 106 999 82 999 q 133 997 131 999 q 153 974 153 994 q 224 949 153 949 q 280 973 250 949 q 360 997 310 997 q 438 973 408 997 q 496 949 468 949 q 557 981 557 949 q 588 1000 557 1000 q 618 982 618 1000 z "},"8":{"ha":688,"x_min":65,"x_max":622,"o":"m 622 269 q 540 74 622 156 q 343 -8 457 -8 q 142 69 218 -8 q 65 271 65 146 q 140 456 65 390 q 176 482 158 468 q 201 511 201 501 q 171 560 201 531 q 115 626 131 600 q 85 751 85 678 q 157 934 85 863 q 340 1006 229 1006 q 528 936 457 1006 q 599 751 599 867 q 569 640 599 692 q 514 568 556 617 q 485 514 485 533 q 521 476 485 506 q 586 406 564 442 q 622 269 622 347 m 500 765 q 458 872 500 829 q 353 915 417 915 q 262 869 294 915 q 229 761 229 822 q 267 667 229 713 q 347 604 300 626 q 382 593 372 593 q 419 610 397 593 q 500 765 500 667 m 475 254 q 416 378 475 322 q 296 435 357 435 q 254 419 279 435 q 160 267 160 368 q 206 140 160 196 q 324 81 254 81 q 435 135 393 81 q 475 254 475 183 z "},"9":{"ha":688,"x_min":74,"x_max":604,"o":"m 604 481 q 310 -4 604 -4 q 160 42 214 -4 q 101 183 101 90 q 176 294 101 294 q 249 218 249 294 q 245 184 249 207 q 242 150 242 161 q 301 71 242 71 q 396 157 361 71 q 424 296 424 225 q 410 371 424 339 q 354 413 392 413 q 310 409 339 413 q 265 406 282 406 q 115 496 167 406 q 74 678 74 571 q 149 913 74 826 q 344 1000 225 1000 q 569 808 511 1000 q 604 481 604 697 m 438 639 q 426 825 438 763 q 342 931 407 931 q 246 825 264 931 q 233 654 233 760 q 250 536 233 572 q 344 481 275 481 q 438 639 438 481 z "}," ":{"ha":688,"x_min":0,"x_max":0,"o":""},"!":{"ha":688,"x_min":92,"x_max":621,"o":"m 621 33 q 601 22 621 22 l 114 22 q 93 33 93 22 l 93 79 q 107 100 93 100 l 228 101 q 261 119 244 101 q 278 164 278 136 l 276 714 q 256 760 276 740 q 207 779 235 779 q 156 776 189 779 q 104 774 124 774 q 93 793 94 774 l 92 835 q 100 849 92 847 q 276 1008 224 875 q 292 1025 282 1021 q 392 1031 310 1031 q 446 1026 432 1031 q 460 1004 460 1021 l 439 164 q 457 118 439 136 q 488 101 471 101 l 608 100 q 621 79 621 100 l 621 33 m 486 -101 q 403 -99 463 -99 q 333 -101 379 -97 l 199 -106 q 199 -101 196 -106 q 351 -61 257 -61 q 486 -101 435 -61 z "},"#":{"ha":688,"x_min":71,"x_max":604,"o":"m 604 313 q 564 166 604 232 q 451 67 524 100 q 350 43 400 43 q 156 93 228 43 q 71 268 71 151 q 97 351 71 315 q 168 386 122 386 q 231 357 208 386 q 253 288 253 328 q 241 242 253 272 q 229 197 229 213 q 258 140 229 165 q 318 114 286 114 q 413 186 383 114 q 436 313 436 239 q 346 521 436 482 q 189 536 310 536 q 172 575 172 536 q 185 608 172 606 q 232 611 199 611 q 378 658 321 611 q 436 793 436 706 q 418 901 436 854 q 326 979 389 979 q 260 955 285 979 q 235 890 235 931 q 240 859 235 881 q 244 826 244 838 q 217 772 244 792 q 153 753 190 753 q 90 789 114 753 q 71 861 71 821 q 96 947 71 907 q 350 1056 163 1056 q 530 987 460 1056 q 600 808 600 918 q 568 686 600 736 q 511 619 554 663 q 481 564 481 588 q 513 518 481 547 q 558 475 536 496 q 604 313 604 421 m 506 -60 l 506 -74 l 438 -71 l 390 -74 l 351 -71 l 306 -71 q 312 -56 307 -67 q 322 -46 317 -46 q 499 -47 492 -46 q 506 -60 506 -49 z "},"$":{"ha":688,"x_min":68,"x_max":611,"o":"m 611 69 q 590 50 611 50 l 176 50 q 157 60 157 50 l 158 128 q 160 144 158 140 q 172 149 163 149 l 299 150 q 347 228 347 150 q 340 276 347 265 q 296 296 329 294 q 219 297 269 297 q 135 296 183 297 q 83 308 96 296 q 69 336 69 319 q 69 433 68 393 q 79 483 69 443 q 256 901 125 610 q 311 1040 274 951 q 322 1051 317 1051 q 499 1049 492 1051 q 506 1036 506 1047 l 504 472 q 508 454 506 460 q 526 444 513 444 l 567 444 q 588 424 588 444 l 588 314 q 560 292 588 292 l 521 292 q 504 271 504 292 q 507 206 504 225 q 553 154 514 154 q 594 153 583 154 q 611 132 611 151 l 611 69 m 594 -69 l 511 -69 q 469 -69 503 -76 l 357 -69 q 279 -64 331 -64 q 199 -69 226 -64 l 113 -72 l 113 -65 q 146 -37 110 -37 q 308 -41 200 -37 q 469 -44 415 -44 q 516 -40 486 -44 q 561 -36 546 -36 q 594 -69 594 -36 m 339 469 l 339 890 q 331 910 339 910 q 318 897 325 910 q 132 486 203 679 q 124 453 124 464 q 144 446 125 446 q 244 446 183 446 q 322 446 329 446 q 339 469 339 446 z "},"%":{"ha":688,"x_min":71,"x_max":608,"o":"m 608 331 q 524 111 608 199 q 307 24 439 24 q 128 90 192 24 q 71 257 71 149 q 168 367 71 367 q 226 344 201 367 q 251 290 251 321 q 226 210 251 246 q 200 165 200 174 q 279 94 200 94 q 397 158 354 94 q 436 294 436 215 l 436 411 q 410 540 436 503 q 286 607 363 607 q 165 558 215 607 q 148 539 157 549 q 128 529 139 529 q 99 581 103 529 q 97 619 97 599 q 100 886 97 832 q 106 996 100 932 q 139 1025 113 1025 q 304 1022 193 1025 q 469 1018 415 1018 q 516 1022 486 1018 q 561 1026 546 1026 q 594 989 594 1026 q 467 829 594 857 q 369 821 426 821 q 318 825 358 821 q 256 829 278 829 q 199 817 214 829 q 186 767 189 808 q 186 718 186 753 q 219 674 186 681 q 285 672 224 672 q 519 594 440 672 q 608 331 608 510 m 486 -101 q 403 -99 463 -99 q 333 -101 379 -97 l 199 -106 q 199 -101 196 -106 q 351 -61 257 -61 q 486 -101 435 -61 z "},"&":{"ha":688,"x_min":82,"x_max":618,"o":"m 618 1032 q 601 835 618 939 q 547 649 582 707 q 435 443 447 481 q 413 199 413 379 q 294 47 413 47 q 214 97 246 47 q 186 192 186 140 q 268 414 186 293 q 421 604 276 426 q 503 761 503 706 q 433 832 503 832 l 213 832 q 161 803 171 832 q 157 738 157 789 q 156 642 157 708 q 139 628 156 628 l 93 628 q 82 650 82 628 l 82 1019 q 106 1049 82 1049 l 135 1047 q 153 1023 153 1047 q 224 999 153 999 q 280 1023 250 999 q 360 1047 310 1047 q 438 1023 408 1047 q 496 999 468 999 q 557 1031 557 999 q 588 1050 557 1050 q 618 1032 618 1050 m 486 -81 q 403 -78 463 -78 q 333 -81 379 -76 l 199 -85 q 199 -81 196 -83 q 351 -40 257 -40 q 486 -81 435 -40 z "},"(":{"ha":688,"x_min":72,"x_max":600,"o":"m 600 607 q 564 247 600 361 q 308 47 499 47 q 158 93 213 47 q 100 235 100 142 q 175 346 100 346 q 249 278 249 346 q 244 239 249 264 q 240 201 240 214 q 300 122 240 122 q 394 208 360 122 q 422 347 422 276 q 353 464 422 464 q 309 460 338 464 q 264 456 281 456 q 114 547 165 456 q 72 729 72 622 q 231 1025 72 950 q 351 1051 288 1051 q 565 897 508 1051 q 600 607 600 801 m 497 -89 q 407 -103 469 -97 q 332 -106 381 -100 q 186 -101 244 -108 q 186 -93 178 -100 q 351 -40 256 -40 q 497 -89 442 -40 m 435 654 q 424 862 442 758 q 340 965 407 965 q 247 892 268 965 q 233 760 243 876 q 231 697 231 725 q 258 567 231 603 q 343 532 286 532 q 435 654 428 532 z "},")":{"ha":688,"x_min":68,"x_max":615,"o":"m 615 575 q 586 228 615 317 q 332 47 529 47 q 71 340 97 47 q 68 443 68 385 q 69 531 68 471 q 104 867 76 776 q 343 1050 163 1050 q 576 886 514 1050 q 615 575 615 783 m 435 -65 l 435 -76 q 374 -74 418 -74 q 360 -76 369 -74 q 346 -78 350 -78 q 332 -76 340 -78 q 319 -74 324 -74 l 282 -74 l 285 -65 q 298 -45 293 -49 q 321 -42 303 -42 l 406 -42 q 435 -65 435 -42 m 442 740 q 429 858 442 821 q 342 925 407 925 q 235 740 235 925 q 236 665 235 715 q 238 589 238 614 q 236 517 238 565 q 235 443 235 468 q 294 154 235 207 q 343 139 313 139 q 396 157 378 139 q 440 432 440 200 q 439 510 440 458 q 438 589 438 563 q 440 665 438 614 q 442 740 442 715 z "},"*":{"ha":688,"x_min":65,"x_max":622,"o":"m 622 307 q 540 111 622 193 q 343 29 457 29 q 142 106 218 29 q 65 308 65 183 q 140 493 65 428 q 176 519 158 506 q 201 549 201 539 q 171 597 201 568 q 115 664 131 638 q 85 789 85 715 q 157 972 85 900 q 340 1043 229 1043 q 528 974 457 1043 q 599 789 599 904 q 569 674 599 728 q 514 599 553 644 q 485 551 485 565 q 521 514 485 543 q 586 443 564 479 q 622 307 622 385 m 497 -110 q 454 -108 483 -112 q 407 -106 425 -104 q 332 -110 381 -104 l 186 -114 q 186 -108 183 -112 q 351 -60 249 -60 q 497 -110 442 -60 m 486 803 q 353 938 486 938 q 235 799 235 938 q 347 654 235 706 q 382 643 372 643 q 456 703 421 643 q 486 803 486 757 m 475 292 q 415 411 475 350 q 296 472 354 472 q 254 457 279 472 q 160 304 160 406 q 206 178 160 233 q 324 118 254 118 q 435 172 393 118 q 475 292 475 221 z "},"+":{"ha":688,"x_min":92,"x_max":596,"o":"m 343 711 q 393 667 393 711 q 396 514 393 597 q 513 515 457 515 q 583 511 571 515 q 596 479 594 507 q 596 454 596 474 q 551 408 596 408 q 399 407 482 408 q 397 326 399 379 q 396 253 396 264 q 338 207 396 207 q 294 235 299 207 q 293 383 294 289 l 292 404 q 138 403 207 403 q 92 461 92 403 q 119 513 92 510 q 268 510 174 511 l 289 511 q 288 628 288 571 q 292 698 288 686 q 324 711 296 710 q 343 711 329 711 z "},",":{"ha":500,"x_min":143,"x_max":357,"o":"m 189 -136 q 222 -72 207 -119 q 236 -12 235 -32 q 171 24 199 -3 q 143 88 143 50 q 175 161 143 129 q 249 193 207 193 q 324 158 292 193 q 357 78 357 122 q 310 -59 357 22 q 218 -162 264 -140 q 200 -157 213 -167 q 188 -140 188 -147 q 189 -136 188 -137 z "},"-":{"ha":688,"x_min":149,"x_max":539,"o":"m 539 460 q 496 408 539 408 q 345 406 446 408 q 194 403 244 403 q 149 461 149 403 q 175 504 149 500 q 300 510 194 506 q 457 515 431 515 q 524 511 515 515 q 539 479 539 507 q 539 460 539 474 z "},".":{"ha":500,"x_min":150,"x_max":351,"o":"m 351 72 q 322 7 351 31 q 250 -17 293 -17 q 181 15 213 -17 q 150 88 150 46 q 178 151 150 128 q 249 174 206 174 q 321 144 290 174 q 351 72 351 115 z "},"/":{"ha":688,"x_min":97,"x_max":590,"o":"m 374 390 l 204 -62 q 171 -86 196 -86 l 119 -86 q 106 -62 97 -86 l 483 976 q 517 1000 492 1000 l 568 1000 q 582 976 590 1000 l 463 632 q 413 506 460 624 l 374 390 z "},"=":{"ha":688,"x_min":149,"x_max":539,"o":"m 539 347 q 496 296 539 296 q 345 293 446 296 q 194 290 244 290 q 149 349 149 290 q 175 392 149 388 q 300 397 194 393 q 457 403 431 403 q 524 399 515 403 q 539 367 539 394 q 539 347 539 361 m 539 572 q 496 521 539 521 q 345 518 446 521 q 194 515 244 515 q 149 574 149 515 q 175 617 149 613 q 300 622 194 618 q 457 628 431 628 q 524 624 515 628 q 539 592 539 619 q 539 572 539 586 z "},"@":{"ha":688,"x_min":85,"x_max":603,"o":"m 603 963 q 593 913 603 950 q 514 775 572 829 q 331 675 463 726 q 244 639 253 644 q 193 571 193 611 q 374 497 193 497 q 525 597 518 497 q 535 619 526 619 l 579 619 q 597 596 594 619 q 601 539 601 568 q 581 372 601 421 q 446 296 547 296 q 324 342 388 296 q 222 389 260 389 q 158 367 169 389 q 154 325 157 364 q 124 303 151 303 q 93 309 99 303 q 88 426 88 315 q 182 689 88 639 q 411 901 361 782 q 431 960 419 919 q 451 975 435 975 q 463 973 456 975 q 474 971 469 971 q 501 971 507 971 q 533 975 517 975 q 560 972 543 975 q 576 974 565 974 q 603 963 603 974 m 597 -49 q 551 -64 599 -64 q 541 -68 544 -64 q 528 -72 538 -72 q 471 -56 478 -72 l 442 -60 q 425 -37 429 -58 q 418 -3 421 -21 q 292 94 386 94 q 222 73 254 94 q 190 14 190 51 q 201 -12 190 3 q 221 -40 213 -26 q 207 -46 211 -46 q 201 -46 204 -46 q 194 -44 197 -44 q 176 -47 189 -44 q 157 -50 164 -50 q 139 -46 149 -50 q 124 -42 129 -42 q 107 -44 118 -42 q 90 -46 96 -46 q 85 -40 85 -46 q 96 26 85 -14 q 343 181 144 181 q 582 26 525 181 q 597 -49 592 -1 z "},"E":{"ha":2188,"x_min":104,"x_max":1750,"o":"m 1750 731 q 1679 556 1750 632 q 1511 479 1608 479 q 1331 543 1406 479 q 1250 714 1250 610 q 1322 896 1250 818 q 1496 974 1393 974 q 1681 910 1613 974 q 1750 731 1750 846 m 1625 174 q 1589 94 1625 126 q 1506 63 1553 63 q 1424 99 1454 63 q 1393 186 1393 135 q 1421 260 1393 232 q 1493 288 1449 288 q 1583 254 1542 288 q 1625 174 1625 221 m 1214 957 q 1196 926 1214 926 q 1047 772 1046 926 l 1053 36 q 1031 10 1053 13 q 942 11 1003 7 q 908 24 917 13 l 418 729 q 407 738 411 738 q 400 718 400 738 q 400 301 403 565 q 408 161 400 185 q 518 99 429 99 q 543 53 542 99 q 522 11 546 11 q 333 8 417 8 q 263 4 351 8 q 179 8 208 1 q 139 49 139 18 q 157 83 139 83 q 265 119 229 83 q 301 238 301 156 l 301 744 q 247 882 301 843 q 115 911 206 910 q 104 963 104 911 q 115 996 104 999 q 336 1001 233 1001 q 528 993 436 1001 q 561 969 546 992 l 749 701 l 968 374 q 976 369 971 368 q 981 381 981 371 l 981 776 q 956 881 981 853 q 857 910 931 908 q 844 924 851 910 q 835 956 836 939 q 856 997 833 997 q 1026 1000 946 1000 q 1194 996 1161 1000 q 1214 957 1214 994 m 1593 732 q 1582 856 1593 819 q 1494 924 1561 924 q 1394 781 1394 924 q 1393 732 1394 764 q 1393 682 1393 699 q 1494 543 1393 543 q 1576 578 1554 543 q 1592 668 1592 604 q 1593 700 1592 678 q 1593 732 1593 722 z "},"Q":{"ha":2188,"x_min":38,"x_max":1750,"o":"m 1750 679 q 1676 462 1750 557 q 1497 367 1601 367 q 1306 444 1385 367 q 1219 657 1219 529 q 1296 883 1219 786 q 1481 981 1372 981 q 1677 901 1604 981 q 1750 679 1750 822 m 1636 101 q 1593 -1 1636 0 q 1571 -1 1593 -1 q 1486 1 1543 -1 q 1400 4 1429 4 q 1371 3 1390 4 q 1343 3 1353 3 q 1296 113 1296 3 q 1324 178 1296 172 q 1393 181 1329 179 q 1554 182 1511 182 q 1632 146 1624 182 q 1636 101 1636 131 m 1210 957 q 1193 926 1210 929 q 1058 863 1111 913 q 1006 747 1006 814 l 1008 267 q 1019 126 1010 206 q 1028 36 1028 47 q 1006 10 1028 21 q 950 -1 979 -3 q 897 21 938 0 q 849 50 856 42 l 669 299 l 389 710 q 371 718 383 718 q 358 700 358 718 q 358 294 361 569 q 383 156 358 194 q 506 97 414 107 l 554 93 q 573 76 561 92 q 585 46 585 61 q 564 6 588 6 q 317 6 429 6 q 235 0 275 3 q 135 1 169 -6 q 85 42 85 11 q 104 78 85 78 q 260 231 258 78 l 260 744 q 49 911 260 908 q 38 953 38 911 q 49 986 38 988 q 294 992 192 992 q 461 983 369 992 q 494 960 474 983 l 669 701 l 904 385 q 927 386 914 378 q 940 410 940 394 l 943 619 l 939 739 q 850 906 932 889 q 779 910 833 908 q 765 924 772 910 q 756 956 757 939 q 762 985 756 972 q 778 997 768 997 q 985 990 904 990 q 1099 994 1013 990 q 1192 996 1171 999 q 1210 957 1210 994 m 1593 681 q 1589 765 1593 714 q 1481 893 1576 893 q 1369 715 1369 893 q 1368 667 1369 694 q 1367 618 1367 639 q 1481 444 1367 444 q 1582 529 1557 444 q 1593 681 1593 572 z "},"R":{"ha":2188,"x_min":157,"x_max":1750,"o":"m 1736 436 q 1686 288 1736 349 q 1550 226 1636 226 q 1400 292 1454 226 q 1349 451 1349 353 q 1401 595 1349 538 q 1538 653 1453 653 q 1682 590 1628 653 q 1736 436 1736 528 m 1750 60 q 1744 18 1750 26 q 1706 8 1738 10 q 1406 3 1465 3 q 1358 74 1358 3 q 1372 115 1358 111 q 1411 118 1378 117 q 1510 122 1444 119 q 1711 128 1671 129 q 1749 108 1743 126 q 1750 60 1750 104 m 1456 831 q 1418 735 1456 772 q 1322 697 1381 697 q 1261 717 1290 697 q 1232 768 1232 738 q 1275 821 1232 807 q 1318 863 1318 835 q 1231 929 1318 929 q 1122 860 1144 929 q 1111 719 1111 829 q 1108 481 1111 640 q 1106 242 1106 321 q 1107 207 1106 229 q 1107 172 1107 183 q 1043 0 1107 0 q 918 115 996 0 q 797 310 886 163 q 690 482 772 353 q 593 629 604 617 q 569 647 578 647 q 551 593 551 647 l 551 522 l 549 146 q 499 33 549 76 q 360 -6 456 -6 q 222 31 276 -6 q 157 153 157 74 q 179 243 157 206 q 257 290 206 290 q 351 218 351 290 q 317 167 351 185 q 283 118 283 149 q 313 74 283 90 q 368 61 336 61 q 449 83 428 61 q 479 168 479 113 l 481 775 q 424 864 482 833 q 317 899 406 872 q 258 942 258 915 q 392 997 258 997 q 561 993 522 997 q 608 958 590 989 l 989 331 q 1014 321 994 321 q 1040 350 1040 321 l 1040 807 q 1053 901 1040 868 q 1114 975 1068 944 q 1275 1006 1160 1006 q 1401 951 1347 1006 q 1456 831 1456 897 m 1625 435 q 1525 576 1625 576 q 1449 456 1449 576 q 1469 363 1449 407 q 1538 306 1496 306 q 1625 435 1625 306 z "},"T":{"ha":2188,"x_min":104,"x_max":1750,"o":"m 1750 731 q 1679 556 1750 632 q 1511 479 1608 479 q 1328 543 1401 479 q 1250 714 1250 608 q 1322 896 1250 818 q 1496 974 1393 974 q 1681 910 1613 974 q 1750 731 1750 846 m 1688 285 q 1643 233 1688 233 q 1493 231 1593 233 q 1343 228 1393 228 q 1296 286 1296 228 q 1324 329 1296 325 q 1447 335 1343 331 q 1606 340 1579 340 q 1674 336 1663 340 q 1688 304 1686 332 q 1688 285 1688 299 m 1688 60 q 1681 18 1688 26 q 1643 8 1675 10 q 1486 8 1592 10 q 1414 6 1468 8 q 1343 3 1369 3 q 1296 61 1296 3 q 1300 94 1296 86 q 1322 103 1304 101 q 1447 110 1340 106 q 1606 115 1579 115 q 1671 108 1656 115 q 1688 78 1686 100 q 1688 60 1688 75 m 1214 957 q 1196 926 1214 926 q 1047 772 1046 926 l 1053 36 q 1031 10 1053 13 q 942 11 1003 7 q 908 24 917 13 l 418 729 q 407 738 411 738 q 400 718 400 738 q 400 301 403 565 q 408 161 400 185 q 518 99 428 99 q 543 53 542 99 q 522 11 546 11 q 333 10 422 10 q 156 13 185 10 q 139 44 139 14 q 157 83 139 83 q 261 117 226 83 q 301 238 301 153 l 301 744 q 247 882 301 843 q 115 911 206 910 q 104 963 104 911 q 115 996 104 999 q 336 1001 233 1001 q 528 993 436 1001 q 561 969 540 993 l 749 701 l 968 374 q 978 371 974 369 q 981 381 982 371 l 981 776 q 956 881 981 853 q 857 910 931 908 q 844 924 851 910 q 835 956 836 939 q 856 997 833 997 q 1026 1000 946 1000 q 1194 996 1161 1000 q 1214 957 1214 994 m 1597 668 q 1590 819 1597 754 q 1494 924 1578 924 q 1394 781 1394 924 q 1393 732 1394 764 q 1393 682 1393 699 q 1494 543 1393 543 q 1579 578 1556 543 q 1597 668 1597 606 z "},"W":{"ha":2188,"x_min":22,"x_max":1750,"o":"m 1750 689 q 1697 526 1750 613 q 1575 411 1643 440 q 1540 403 1564 407 q 1458 392 1471 392 q 1270 469 1343 392 q 1197 664 1197 547 q 1267 885 1197 803 q 1475 968 1338 968 q 1672 888 1594 968 q 1750 689 1750 808 m 1581 126 q 1549 53 1581 79 q 1468 28 1517 28 q 1385 65 1426 28 q 1343 149 1343 101 q 1450 240 1343 240 q 1539 206 1497 240 q 1581 126 1581 172 m 1176 957 q 1158 926 1176 929 q 1035 865 1097 915 q 976 749 978 818 q 968 267 968 390 q 978 126 969 206 q 988 36 988 47 q 967 10 988 21 q 910 -1 939 -3 q 856 21 897 0 q 808 50 815 42 l 631 299 l 349 710 q 328 718 343 718 q 313 700 313 718 l 318 307 q 343 163 321 201 q 467 97 374 107 l 514 93 q 533 76 521 92 q 544 46 544 61 q 524 6 547 6 q 283 6 394 6 q 63 6 76 4 q 46 43 46 8 q 64 78 46 78 q 179 123 139 78 q 219 243 219 168 l 219 732 q 165 869 219 831 q 33 899 124 897 q 22 953 22 899 q 33 986 22 988 q 256 990 151 990 q 401 983 325 990 q 435 960 418 982 l 631 701 l 833 413 q 861 399 843 399 q 892 443 889 399 q 899 739 899 560 q 810 906 899 888 q 739 910 793 908 q 724 924 732 910 q 717 956 717 939 q 722 985 715 972 q 738 997 728 997 q 944 990 864 990 q 1063 994 971 990 q 1157 996 1138 999 q 1176 957 1176 994 m 1594 707 q 1450 888 1594 888 q 1365 818 1394 888 q 1343 701 1343 765 q 1374 556 1343 618 q 1483 472 1411 472 q 1572 567 1540 472 q 1594 707 1594 635 z "},"Y":{"ha":688,"x_min":81,"x_max":611,"o":"m 611 514 q 588 490 611 490 l 517 490 q 506 481 507 490 l 471 292 q 483 276 468 276 l 583 276 q 607 253 607 276 l 607 221 q 583 197 607 197 l 463 197 q 451 188 453 197 l 421 24 q 393 0 417 0 l 361 0 q 342 24 338 0 l 371 183 q 358 197 374 197 l 258 197 q 246 188 249 197 l 217 24 q 188 0 213 0 l 156 0 q 138 24 133 0 l 167 183 q 154 197 169 197 l 103 197 q 81 221 81 197 l 81 253 q 104 276 81 276 l 174 276 q 186 288 185 276 l 221 476 q 208 490 222 490 l 111 490 q 86 514 86 490 l 86 546 q 110 571 86 571 l 226 571 q 239 581 238 571 l 269 744 q 297 768 274 768 l 329 768 q 349 744 353 768 l 319 585 q 332 571 317 571 l 432 571 q 444 581 442 571 l 474 744 q 503 768 478 768 l 535 768 q 553 744 557 768 l 524 585 q 536 571 521 571 l 588 571 q 611 546 611 571 l 611 514 m 425 476 q 413 490 428 490 l 313 490 q 300 481 301 490 l 265 292 q 278 276 264 276 l 378 276 q 390 288 389 276 l 425 476 z "},"^":{"ha":688,"x_min":82,"x_max":618,"o":"m 613 356 q 525 110 613 196 q 332 33 447 33 q 119 190 178 33 q 83 481 83 290 q 119 836 83 721 q 367 1039 182 1039 q 604 846 604 1039 q 533 735 604 735 q 453 804 453 735 q 458 842 453 818 q 464 881 464 867 q 444 939 464 915 q 389 963 424 963 q 283 860 319 963 q 265 746 265 813 q 271 663 265 682 q 333 621 285 621 q 376 625 347 621 q 419 629 406 629 q 571 538 519 629 q 613 356 613 463 m 618 -71 q 618 -85 618 -74 l 593 -87 l 578 -82 l 568 -85 q 556 -85 561 -87 q 557 -78 557 -85 q 588 -53 557 -53 q 618 -71 618 -53 m 438 -85 q 414 -93 435 -93 q 380 -90 401 -93 q 356 -87 358 -87 q 311 -90 358 -87 q 281 -85 289 -92 q 360 -56 317 -56 q 438 -85 401 -56 m 153 -83 q 136 -89 144 -90 q 108 -85 119 -85 q 96 -87 107 -85 q 82 -87 86 -90 q 106 -54 86 -54 l 135 -56 q 153 -83 153 -56 m 451 389 q 435 506 451 469 q 342 558 410 558 q 249 401 249 558 q 260 215 249 278 q 344 110 279 110 q 443 217 425 110 q 451 389 451 274 z "},"É":{"ha":688,"x_min":88,"x_max":615,"o":"m 465 1086 q 308 1038 371 1038 q 154 1086 201 1038 q 158 1089 157 1088 q 176 1086 164 1089 q 188 1083 188 1083 q 247 1086 189 1083 l 326 1081 q 400 1086 399 1086 q 453 1092 411 1079 q 465 1086 469 1097 m 615 -42 q 594 -53 615 -53 l 108 -53 q 88 -42 88 -53 l 88 29 q 100 50 88 50 l 218 51 q 249 69 233 51 q 265 114 265 86 l 275 617 q 256 663 275 644 q 210 682 238 682 q 159 686 190 682 q 110 690 128 690 q 101 706 101 690 l 101 739 q 111 758 101 757 q 285 929 226 782 q 300 947 289 943 q 363 950 311 950 q 425 947 415 950 q 435 933 435 943 l 439 114 q 457 68 439 86 q 488 51 471 51 l 601 50 q 615 29 615 50 l 615 -42 z "},"Ñ":{"ha":688,"x_min":74,"x_max":604,"o":"m 482 1094 q 343 1064 421 1064 q 200 1094 260 1064 l 482 1094 m 604 456 q 310 -29 604 -29 q 160 17 214 -29 q 101 158 101 65 q 176 269 101 269 q 249 193 249 269 q 245 160 249 182 q 242 126 242 139 q 301 51 242 51 q 396 136 361 51 q 424 271 424 201 q 410 346 424 314 q 354 388 392 388 q 310 384 339 388 q 265 381 282 381 q 115 471 167 381 q 74 653 74 546 q 160 899 74 813 q 344 975 235 975 q 569 783 510 975 q 604 456 604 672 m 438 614 q 426 800 438 738 q 342 906 407 906 q 247 811 268 906 q 233 629 233 749 q 250 517 233 550 q 344 468 274 468 q 438 614 438 468 z "}," ":{"ha":688,"x_min":0,"x_max":0,"o":""},"Ê":{"ha":688,"x_min":71,"x_max":615,"o":"m 615 1040 q 594 1031 615 1031 l 504 1031 l 394 1033 l 292 1031 l 108 1031 q 88 1040 88 1031 l 88 1049 q 100 1069 88 1071 l 156 1063 q 208 1058 190 1057 q 264 1067 226 1063 q 335 1068 282 1067 q 368 1057 346 1063 q 397 1064 378 1060 l 488 1065 l 546 1063 l 601 1069 q 615 1049 615 1071 l 615 1040 m 604 686 q 515 418 604 504 q 328 315 463 368 q 247 279 264 290 q 203 210 203 251 q 371 138 203 138 q 521 238 513 138 q 532 260 524 260 l 575 260 q 594 243 592 260 q 597 124 597 219 q 442 -64 597 -64 q 320 -17 383 -64 q 218 29 257 29 q 156 7 167 29 q 151 -35 154 4 q 121 -57 149 -57 q 78 -50 81 -57 q 71 67 71 -42 q 179 329 71 272 q 435 679 435 463 q 403 799 435 750 q 299 854 367 854 q 228 832 260 854 q 196 774 196 810 q 219 734 196 765 q 242 658 242 703 q 225 601 242 626 q 174 572 206 572 q 89 690 89 572 q 349 940 89 940 q 534 871 464 940 q 604 686 604 801 z "},"Ë":{"ha":688,"x_min":69,"x_max":604,"o":"m 558 1107 q 442 1060 519 1060 q 319 1107 383 1060 l 368 1099 l 433 1103 q 504 1099 471 1093 q 558 1107 533 1103 m 151 1103 q 121 1067 150 1067 q 78 1072 81 1067 q 74 1107 75 1078 l 99 1101 l 126 1101 l 151 1103 m 604 226 q 532 33 604 107 q 350 -42 460 -42 q 156 7 228 -42 q 71 181 71 64 q 95 260 71 226 q 164 294 119 294 q 225 265 201 294 q 244 200 244 239 q 232 155 244 185 q 219 108 219 125 q 250 56 219 76 q 317 36 281 36 q 438 226 438 36 q 349 440 438 401 q 189 458 310 458 q 178 472 179 458 q 178 508 178 478 q 186 522 178 522 q 208 521 194 522 q 229 521 221 521 q 381 568 322 521 q 443 713 443 621 q 425 836 443 788 q 325 918 394 918 q 254 886 282 918 q 226 811 226 854 q 231 778 226 800 q 236 746 236 757 q 210 694 236 713 q 149 676 183 676 q 89 711 111 676 q 69 781 69 742 q 94 865 69 826 q 350 971 161 971 q 528 903 458 971 q 599 728 599 836 q 556 586 599 640 q 510 538 532 563 q 478 482 478 503 q 510 431 478 457 q 571 367 556 393 q 604 226 604 314 z "},"È":{"ha":688,"x_min":71,"x_max":617,"o":"m 478 1099 q 321 1050 383 1050 q 167 1099 214 1050 q 171 1101 169 1100 q 188 1099 176 1101 q 200 1096 200 1096 q 260 1099 201 1096 l 339 1093 q 413 1099 411 1099 q 465 1104 424 1092 q 478 1099 482 1110 m 617 478 q 581 139 617 243 q 335 -42 519 -42 q 97 140 151 -42 q 71 475 71 231 q 108 793 71 690 q 344 963 171 963 q 579 794 517 963 q 617 478 617 692 m 443 322 q 442 412 443 353 q 440 501 440 471 q 442 577 440 526 q 443 653 443 628 q 344 886 443 886 q 246 653 246 886 q 247 577 246 628 q 249 501 249 526 q 247 416 249 472 q 246 331 246 360 q 289 69 246 115 q 346 49 310 49 q 397 65 378 49 q 443 322 443 107 z "},"Í":{"ha":688,"x_min":85,"x_max":607,"o":"m 565 1026 q 540 1017 565 1024 q 510 1013 515 1010 q 500 1018 507 1018 q 490 1015 494 1018 q 481 1011 485 1011 l 171 1011 q 154 1019 165 1018 q 132 1019 143 1019 l 132 1038 q 140 1038 136 1038 q 146 1038 143 1038 q 153 1042 149 1038 q 163 1044 158 1046 q 169 1040 164 1044 q 182 1036 175 1036 q 204 1040 192 1036 q 244 1043 217 1043 q 331 1036 246 1036 l 446 1036 q 467 1045 451 1036 q 488 1054 482 1054 l 557 1054 q 563 1042 558 1051 q 565 1026 568 1033 m 607 235 q 524 17 607 101 q 307 -67 442 -67 q 144 -8 204 -67 q 85 151 85 50 q 174 261 85 261 q 227 238 206 261 q 249 183 249 215 q 228 110 249 139 q 208 75 208 82 q 285 -1 208 -1 q 407 57 367 -1 q 443 192 443 108 l 443 303 q 292 504 443 504 q 178 461 226 504 q 156 438 167 450 q 132 425 144 425 q 118 429 126 425 q 103 506 103 435 q 111 778 103 590 q 118 892 113 825 q 151 921 124 921 q 313 917 206 921 q 476 914 421 914 q 522 918 492 914 q 567 922 553 922 q 600 885 600 922 q 451 715 600 729 q 307 710 397 710 q 189 692 210 710 q 175 628 175 681 l 175 608 q 268 551 175 558 q 335 551 278 551 q 469 529 422 551 q 607 235 607 464 z "},"Î":{"ha":688,"x_min":79,"x_max":608,"o":"m 493 999 q 331 947 425 947 q 190 992 243 947 q 194 1000 185 997 q 356 1014 249 1014 q 369 1013 360 1014 q 381 1013 378 1013 q 389 1013 385 1013 q 396 1014 394 1014 q 490 1010 461 1014 q 493 999 504 1007 m 608 176 q 561 -19 608 61 q 488 -29 543 -29 q 436 -28 481 -29 q 418 -17 417 -26 q 440 65 435 14 q 446 153 443 108 q 449 207 449 171 q 338 399 449 399 q 244 222 244 399 q 267 -8 244 51 q 269 -15 269 -15 q 174 -31 269 -31 q 125 -22 129 -31 q 79 281 79 65 q 139 640 79 485 q 392 858 221 858 q 540 818 481 858 q 608 686 608 772 q 529 568 608 568 q 450 633 450 568 q 464 690 450 654 q 478 747 478 726 q 414 810 478 810 q 279 682 325 810 q 263 568 263 633 q 267 490 263 519 q 328 442 275 442 q 371 446 342 442 q 415 450 400 450 q 567 358 515 450 q 608 176 608 285 z "},"Ï":{"ha":688,"x_min":82,"x_max":618,"o":"m 453 1054 q 325 1028 397 1028 q 293 1031 301 1026 q 256 1039 272 1033 q 213 1060 221 1051 q 232 1065 215 1065 q 281 1057 233 1058 q 301 1058 290 1058 q 332 1057 311 1058 q 364 1054 353 1056 q 410 1057 382 1054 q 451 1060 443 1060 q 453 1054 454 1058 m 618 922 q 601 726 618 831 q 547 540 582 597 q 433 332 447 374 q 413 89 413 269 q 294 -61 413 -61 q 214 -12 246 -61 q 186 83 186 31 q 268 304 186 183 q 421 496 278 318 q 503 651 503 597 q 433 724 503 724 l 213 724 q 157 667 161 724 q 157 629 157 664 q 157 581 157 613 q 156 534 156 549 q 139 519 156 519 l 93 519 q 82 540 82 519 l 82 911 q 97 938 82 936 q 133 938 113 940 q 153 915 153 936 q 224 889 153 889 q 280 913 251 889 q 360 938 308 938 q 438 913 410 938 q 496 889 467 889 q 557 921 557 889 q 588 940 557 940 q 618 922 618 940 z "},"Ì":{"ha":688,"x_min":75,"x_max":613,"o":"m 476 1068 q 350 1036 419 1036 q 186 1068 253 1036 l 476 1068 m 613 -42 q 592 -53 613 -53 l 185 -53 q 165 -42 165 -53 l 165 19 q 181 40 165 40 q 236 40 196 40 q 293 42 276 42 q 353 125 353 42 q 350 172 353 153 q 301 206 344 203 q 88 210 204 203 q 75 236 75 215 l 75 333 q 86 381 75 353 q 324 938 163 594 q 338 949 329 949 q 371 949 339 949 q 428 950 410 950 q 503 947 494 950 q 511 935 511 944 l 511 369 q 536 343 511 343 l 576 343 q 594 322 594 343 l 594 217 q 574 201 594 201 l 526 201 q 511 181 513 201 l 514 104 q 596 40 517 35 q 613 19 613 42 l 613 -42 m 346 365 l 346 808 q 338 828 346 828 q 324 817 331 829 q 149 383 290 753 q 143 351 142 365 q 163 343 143 343 l 332 344 q 346 365 346 344 z "},"Ð":{"ha":688,"x_min":65,"x_max":622,"o":"m 381 1079 q 294 1043 351 1043 q 224 1079 254 1043 l 381 1079 m 622 219 q 547 18 622 94 q 343 -58 471 -58 q 135 19 208 -58 q 65 221 65 93 q 140 406 65 340 q 176 432 158 418 q 201 461 201 451 q 171 510 201 481 q 115 576 131 550 q 85 701 85 628 q 157 884 85 813 q 340 956 229 956 q 528 886 457 956 q 599 701 599 817 q 569 590 599 642 q 514 518 556 567 q 485 464 485 483 q 521 426 485 456 q 586 356 564 392 q 622 219 622 297 m 500 715 q 458 822 500 779 q 353 865 417 865 q 262 819 294 865 q 229 711 229 772 q 267 617 229 663 q 347 554 300 576 q 382 543 372 543 q 419 560 397 543 q 500 715 500 617 m 465 210 q 408 326 465 267 q 296 385 351 385 q 256 371 281 385 q 167 221 167 321 q 176 164 167 196 q 322 42 217 42 q 426 92 388 42 q 465 210 465 142 z "}}}
